<svg width="448" height="58" viewBox="0 0 448 58" fill="none" xmlns="http://www.w3.org/2000/svg">
<rect x="0.5" y="18.5" width="447" height="39" rx="3.5" stroke="#212121" stroke-opacity="0.2"/>
<path d="M7.50586 11H6.375V3.39453H2.16797V11H1.04297V2.46875H7.50586V11ZM9.21961 7.77148C9.21961 7.15039 9.3407 6.5918 9.58289 6.0957C9.82898 5.59961 10.1688 5.2168 10.6024 4.94727C11.0399 4.67773 11.538 4.54297 12.0966 4.54297C12.9598 4.54297 13.6571 4.8418 14.1884 5.43945C14.7235 6.03711 14.9911 6.83203 14.9911 7.82422V7.90039C14.9911 8.51758 14.872 9.07227 14.6337 9.56445C14.3993 10.0527 14.0614 10.4336 13.62 10.707C13.1825 10.9805 12.6786 11.1172 12.1083 11.1172C11.2489 11.1172 10.5516 10.8184 10.0165 10.2207C9.48523 9.62305 9.21961 8.83203 9.21961 7.84766V7.77148ZM10.3095 7.90039C10.3095 8.60352 10.4716 9.16797 10.7958 9.59375C11.1239 10.0195 11.5614 10.2324 12.1083 10.2324C12.6591 10.2324 13.0966 10.0176 13.4208 9.58789C13.745 9.1543 13.9071 8.54883 13.9071 7.77148C13.9071 7.07617 13.7411 6.51367 13.4091 6.08398C13.0809 5.65039 12.6434 5.43359 12.0966 5.43359C11.5614 5.43359 11.1298 5.64648 10.8016 6.07227C10.4735 6.49805 10.3095 7.10742 10.3095 7.90039ZM21.2576 11H20.1677V8.70312C19.6912 8.82812 19.2029 8.89062 18.7029 8.89062C17.9099 8.89062 17.3045 8.6875 16.8865 8.28125C16.4724 7.875 16.2615 7.29688 16.2537 6.54688V4.6543H17.3377V6.58203C17.3572 7.52734 17.8123 8 18.7029 8C19.2029 8 19.6912 7.9375 20.1677 7.8125V4.66016H21.2576V11ZM27.8288 5.53906H25.7018V11H24.6178V5.53906H22.5319V4.66016H27.8288V5.53906ZM32.8237 11C32.7612 10.875 32.7105 10.6523 32.6714 10.332C32.1675 10.8555 31.5659 11.1172 30.8667 11.1172C30.2417 11.1172 29.728 10.9414 29.3257 10.5898C28.9273 10.2344 28.728 9.78516 28.728 9.24219C28.728 8.58203 28.978 8.07031 29.478 7.70703C29.982 7.33984 30.689 7.15625 31.5991 7.15625H32.6538V6.6582C32.6538 6.2793 32.5405 5.97852 32.314 5.75586C32.0874 5.5293 31.7534 5.41602 31.312 5.41602C30.9253 5.41602 30.6011 5.51367 30.3394 5.70898C30.0777 5.9043 29.9468 6.14062 29.9468 6.41797H28.857C28.857 6.10156 28.9683 5.79688 29.1909 5.50391C29.4175 5.20703 29.7222 4.97266 30.105 4.80078C30.4917 4.62891 30.9155 4.54297 31.3765 4.54297C32.107 4.54297 32.6792 4.72656 33.0933 5.09375C33.5073 5.45703 33.7222 5.95898 33.7378 6.59961V9.51758C33.7378 10.0996 33.812 10.5625 33.9605 10.9062V11H32.8237ZM31.0249 10.1738C31.3648 10.1738 31.687 10.0859 31.9917 9.91016C32.2964 9.73438 32.5171 9.50586 32.6538 9.22461V7.92383H31.8042C30.4761 7.92383 29.812 8.3125 29.812 9.08984C29.812 9.42969 29.9253 9.69531 30.1519 9.88672C30.3784 10.0781 30.6695 10.1738 31.0249 10.1738Z" fill="#757575"/>
<path d="M27 32H15C14.175 32 13.5075 32.675 13.5075 33.5L13.5 42.5C13.5 43.325 14.175 44 15 44H27C27.825 44 28.5 43.325 28.5 42.5V33.5C28.5 32.675 27.825 32 27 32ZM26.7 35.1875L21.3975 38.5025C21.1575 38.6525 20.8425 38.6525 20.6025 38.5025L15.3 35.1875C15.1125 35.0675 15 34.865 15 34.6475C15 34.145 15.5475 33.845 15.975 34.1075L21 37.25L26.025 34.1075C26.4525 33.845 27 34.145 27 34.6475C27 34.865 26.8875 35.0675 26.7 35.1875Z" fill="#212121"/>
</svg>
